# xmcd CD database file
#
# Track frame offsets:
#	150
#	21790
#	48403
#	81634
#	107823
#	133677
#	161694
#	188861
#	212027
#	228479
#	254804
#	279062
#
# Disc length: 4034 seconds
#
# Revision: 1
# Processed by: cddbd v1.5.1PL0 Copyright (c) Steve Scherf et al.
# Submitted via: CDex 1.51
#
DISCID=ad0fc00c
DTITLE=Laura Sullivan - Mystical America
DYEAR=2004
DGENRE=New Age
TTITLE0=America's Stonehenge
TTITLE1=Chaco Canyon
TTITLE2=Coral Castel
TTITLE3=Bighorn Medicine Wheel
TTITLE4=Tongass Island
TTITLE5=The Serpent Mound
TTITLE6=Red Rock Ridge
TTITLE7=Pictograph Cave
TTITLE8=The Heavener Runestone
TTITLE9=Sedona
TTITLE10=Hawaiian Islands
TTITLE11=Mt. Shasta
EXTD=YEAR: 2004
EXTT0=
EXTT1=
EXTT2=
EXTT3=
EXTT4=
EXTT5=
EXTT6=
EXTT7=
EXTT8=
EXTT9=
EXTT10=
EXTT11=
PLAYORDER=
